<svg id="Layer_1" data-name="Layer 1" xmlns="http://www.w3.org/2000/svg" viewBox="0 0 4307.91 1915.95"><defs><style>.cls-1{fill:#001655;}.cls-2{fill:#292929;}</style></defs><title>coloradomedia-wektor</title><path class="cls-1" d="M447,28.86" transform="translate(-38.71 -28.86)"/><path class="cls-1" d="M447,28.86l407.46,573L971,229.25Zm371.83,452L560.53,121.63,895.24,247.8Z" transform="translate(-38.71 -28.86)"/><path class="cls-1" d="M38.71,868.38l490.5,774.1,181-577Zm453,598.41L183.18,983.43l428.08,124Z" transform="translate(-38.71 -28.86)"/><path class="cls-1" d="M1311.34,1243l500.31,701.86,31.21-544.9Zm441.45,541.33-313-438.77,338,98.1Z" transform="translate(-38.71 -28.86)"/><path class="cls-2" d="M1190.05,658.8H1190a511.78,511.78,0,0,0-79.56-15.07c-16.35-1.48-46.32-4.21-82.67,2.61-21.48,4-70.78,13.95-115.94,54.4-36.17,32.4-51.65,68.31-58.55,84.8-18.79,44.94-19.34,83.56-19.43,104.26-.08,18.88,0,45.2,10.2,77.59,4.94,15.73,17,52.49,50.83,86.51,36,36.13,75.61,48.15,90.54,52.48,31.44,9.11,59.23,9.18,78.65,9.22a369.39,369.39,0,0,0,49-3.29c15.79-2,31.63-4.11,51.57-10.6a225,225,0,0,0,25.18-9.9l.29-95.88c-34.15,16-39.24,17.84-39.24,17.84a234,234,0,0,1-44.58,10.7h0l-.12,0a178.06,178.06,0,0,1-59.06-1.61c-3.24-.67-27.46-5.9-46.95-18-47.38-29.48-68.41-100.72-56.19-159.64,2.87-13.79,11.48-52,45.49-81.15,38.44-33,85.45-32.55,103.52-32.44a186.31,186.31,0,0,1,96.25,28l0-.26,0,.26C1189.11,759.63,1189.57,709.8,1190.05,658.8Z" transform="translate(-38.71 -28.86)"/><path class="cls-2" d="M1676.3,872.48c0-16.63-.09-34.28-4-55.47-3.37-18-15.62-78.87-68.75-124.79a208.15,208.15,0,0,0-46.8-30c-45.67-21.46-86.54-20.73-104-20.22-21.19.62-69.42,2.66-119,34.66-8.33,5.38-60.93,40.35-85.5,106.31-10.06,27-12.77,52.12-14.44,67.59-1.52,14-4.16,40,0,71.64,2.83,21.58,7.93,60.83,35.24,101.1,5.94,8.77,40.09,57.65,104.57,79.73,30.81,10.56,57.61,11.25,74.52,11.56,16.47.3,41.59.57,71.64-8.09,51.57-14.86,84.17-46.35,96.49-59.51a219.7,219.7,0,0,0,53.15-100C1676.42,917.78,1676.35,891.3,1676.3,872.48ZM1539.81,986.87a104.22,104.22,0,0,1-23.54,22.26,109.07,109.07,0,0,1-101.65,10.21c-27.36-11.45-41.75-31.19-48.83-41.18-15.69-22.13-20-43-23.32-59.39a201.08,201.08,0,0,1,1.82-86.72c4-16.7,8.87-36.59,24.78-57.2,5.84-7.57,17.89-22.83,39.72-33.16a105.2,105.2,0,0,1,47.36-9.84c9,.08,33,.59,57.57,16,18.39,11.58,28.13,25.94,33.16,33.52,17.75,26.77,20.58,53.05,22.59,74C1570.32,864.23,1576.76,940.17,1539.81,986.87Z" transform="translate(-38.71 -28.86)"/><polygon class="cls-2" points="1714.97 622.59 1818.47 622.59 1818.47 994.4 1986.57 994.4 1986.57 1076.8 1714.97 1076.8 1714.97 622.59"/><path class="cls-2" d="M2485.41,873.9c0-16.63-.09-34.28-4-55.46-3.37-18.05-15.62-78.88-68.75-124.79a207.79,207.79,0,0,0-46.8-30c-45.67-21.46-86.54-20.73-104-20.22-21.19.62-69.42,2.66-119,34.67-8.33,5.38-60.93,40.35-85.5,106.3-10.06,27-12.77,52.12-14.44,67.59-1.52,14-4.16,40,0,71.64,2.83,21.58,7.93,60.83,35.24,101.11,5.94,8.76,40.09,57.64,104.57,79.72,30.81,10.56,57.61,11.25,74.53,11.56,16.46.3,41.58.57,71.64-8.09,51.56-14.85,84.16-46.35,96.48-59.51a219.73,219.73,0,0,0,53.15-99.94C2485.54,919.21,2485.46,892.72,2485.41,873.9ZM2348.92,988.29a104.42,104.42,0,0,1-23.54,22.27,109,109,0,0,1-101.65,10.2c-27.36-11.45-41.75-31.19-48.83-41.18-15.69-22.13-20-43-23.32-59.39a201.24,201.24,0,0,1,1.82-86.72c4-16.7,8.88-36.59,24.78-57.2,5.84-7.57,17.89-22.82,39.72-33.16a105.5,105.5,0,0,1,47.36-9.84c9,.08,33,.59,57.57,16,18.39,11.57,28.13,25.93,33.16,33.52,17.75,26.76,20.58,53,22.59,74C2379.43,865.65,2385.87,941.59,2348.92,988.29Z" transform="translate(-38.71 -28.86)"/><path class="cls-2" d="M2902.05,1040.59c-22-35.41-28.19-46.85-44.75-71.18,0,0-6.65-9.76-34.52-42.06-4.81-5.58-9.55-10.91-17.25-15.64,0,0-2.43-1.49-16.72-8.63,0,0,19-7.34,31.82-14A165.88,165.88,0,0,0,2851.9,867c19.92-18.24,42.15-54.93,39.37-99.76-.59-9.46-4.46-54.39-39.37-83.58-17.48-14.63-37-20.49-49.61-24.27a183.58,183.58,0,0,0-51.21-7.55c-87-1.66-187.68-1.08-187.68-1.08s-.19,158.88-.54,454.6l102.46.53.54-173.64c3.48.15,8.72.35,15.1.54,14.65.45,16.82.3,19.41.54,6,.57,15.27,3.34,30.74,20,13,13.94,18.6,25.06,30.2,45.3,13.59,23.73,28.55,46.65,42.6,70.11l22.11,37.2s29.47-.13,58.78,0,58.78.54,58.78.54S2921.91,1072.61,2902.05,1040.59ZM2779.51,810.23a67.18,67.18,0,0,1-7.13,14.13h0a61.59,61.59,0,0,1-15.32,16.82,64.16,64.16,0,0,1-19.91,10,65.84,65.84,0,0,1-17.25,2.8c-8.07.8-16.63,1.4-25.64,1.72-10.09.36-19.64.32-28.6,0q.42-31.77.47-64.2,0-31.86-.27-63.1h58.78a63.52,63.52,0,0,1,32.61,9.29,62.51,62.51,0,0,1,17.92,16.73,69.9,69.9,0,0,1,8.32,31.78A68.22,68.22,0,0,1,2779.51,810.23Z" transform="translate(-38.71 -28.86)"/><path class="cls-2" d="M3245.39,650.38h-122L2958.2,1106.11h111.44l32.16-100.47h163.27l31.33,100.47h110.33Zm-122.53,276.1,58.77-182.4,58.77,182.4Z" transform="translate(-38.71 -28.86)"/><path class="cls-2" d="M3847.93,851s-1.41-27.86-8.76-53.73c-5.63-19.79-18.64-64.42-58.77-97.57-33.66-27.81-72-36-98.13-41.59-.73-.15-1.57-.33-2.57-.52a331,331,0,0,0-43.78-5.58c-13.6-.81-23.91-.6-26.83-.55-25,.45-83.23.45-165.38.17q.39,113.31.44,226.56,0,113.94-.28,227.89c131.43,5.06,172.42.56,172.42.56,46.87-5.15,76.77-8.74,112.57-27.53,15.65-8.21,55.13-29.85,84.25-75.59,2.48-3.9,22-35.14,29.89-76.25,4.85-25.23,5.14-53.11,5.2-58.9C3848.25,863.76,3848.3,858.24,3847.93,851ZM3739.4,895c-1.16,12.61-3.71,37.35-19.38,63.76-5,8.48-18.6,30.75-45.47,46.48-28.39,16.63-57.36,17.33-75.55,18.22s-52.15,0-52.15,0V734.36s34.15-1.08,57.08.68c23.3,1.79,49.54,3.8,75.66,19.82,4.87,3,40.69,25.59,53,65.93,3.92,12.88,5.43,27.54,6.13,34.36A201,201,0,0,1,3739.4,895Z" transform="translate(-38.71 -28.86)"/><path class="cls-2" d="M4338.31,872.48c0-16.63-.09-34.28-4-55.47-3.37-18-15.62-78.87-68.75-124.79a207.89,207.89,0,0,0-46.8-30c-45.67-21.46-86.54-20.73-104-20.22-21.19.62-69.42,2.66-119,34.66-8.33,5.38-60.93,40.35-85.5,106.31-10.06,27-12.77,52.12-14.44,67.59-1.52,14-4.16,40,0,71.64,2.83,21.58,7.93,60.83,35.24,101.1,5.94,8.77,40.09,57.65,104.57,79.73,30.81,10.56,57.61,11.25,74.53,11.56,16.46.3,41.58.57,71.63-8.09,51.57-14.86,84.17-46.35,96.49-59.51a219.7,219.7,0,0,0,53.15-100C4338.44,917.78,4338.36,891.3,4338.31,872.48ZM4201.82,986.87a104.22,104.22,0,0,1-23.54,22.26,109.07,109.07,0,0,1-101.65,10.21c-27.36-11.45-41.75-31.19-48.83-41.18-15.69-22.13-20-43-23.32-59.39a201.24,201.24,0,0,1,1.82-86.72c4-16.7,8.88-36.59,24.78-57.2,5.84-7.57,17.89-22.83,39.72-33.16a105.2,105.2,0,0,1,47.36-9.84c9,.08,33,.59,57.57,16,18.39,11.58,28.13,25.94,33.16,33.52,17.75,26.77,20.58,53.05,22.59,74C4232.33,864.23,4238.77,940.17,4201.82,986.87Z" transform="translate(-38.71 -28.86)"/><path class="cls-1" d="M2646.62,1644.64h-49v-419.5h67l148,338.5,152-338.5h62v419.5h-49l1-349-154,349h-23.5l-154.93-347.59Z" transform="translate(-38.71 -28.86)"/><polygon class="cls-1" points="3098.41 1196.28 3311.91 1196.28 3311.91 1239.78 3146.91 1239.78 3146.91 1379.28 3298.91 1379.28 3298.91 1423.28 3146.41 1423.28 3146.41 1571.78 3320.41 1571.78 3320.41 1615.78 3098.41 1615.78 3098.41 1196.28"/><path class="cls-1" d="M3776.78,1387.81c-2.61-18.17-6.21-43.25-19.66-68.67-25.35-47.91-70.57-68.49-86-75.5-45-20.44-102.5-19-102.5-19h-127.5q-.13,104.63-.25,209.24-.13,105.12-.25,210.25l117,.5s44.12-3.23,71-9.5c35.62-8.32,61.88-26.87,75.23-37.77,1.26-1,3.94-3.24,7.27-6.23a205.34,205.34,0,0,0,48.16-65.17c15.17-32.33,17.78-60.08,19.34-78.33A264.68,264.68,0,0,0,3776.78,1387.81Zm-49.16,54.33c-2,23.62-6.32,75.72-45.5,114-40.62,39.67-96.72,43.06-120.5,44.5-24.41,1.48-71.46-.07-71.47-.06s-.12-331.76-.12-331.76a723.79,723.79,0,0,1,83.09.32c15.28,1,22.92,1.53,31,3,15.12,2.74,65.71,11.91,96.5,54.5,13.08,18.1,17.76,35.55,21.5,49.5A196.94,196.94,0,0,1,3727.62,1442.14Z" transform="translate(-38.71 -28.86)"/><polygon class="cls-1" points="3823.41 1195.76 3871.91 1196.28 3871.91 1615.78 3823.41 1615.78 3823.41 1195.76"/><path class="cls-1" d="M4185.12,1224.62h-51l-162,420h55.5l41.5-118h178.5l44.5,118h54.5Zm-100,258,74.25-201,72.75,201Z" transform="translate(-38.71 -28.86)"/></svg>